<svg xmlns="http://www.w3.org/2000/svg" viewBox="0 0 435.54 512"><defs><style>.cls-1{fill:#fff;}</style></defs><g id="圖層_2" data-name="圖層 2"><g id="Layer_1" data-name="Layer 1"><path class="cls-1" d="M350,0H85.54A85.63,85.63,0,0,0,0,85.54V301.48A85.64,85.64,0,0,0,85.54,387H129.8l-8.73,103.57c-1.44,17.18,18.33,27.72,31.8,17.23L308.08,387H350a85.65,85.65,0,0,0,85.55-85.55V85.54A85.65,85.65,0,0,0,350,0Zm46.06,301.48A46.12,46.12,0,0,1,350,347.54H301.3a19.73,19.73,0,0,0-12.13,4.16L164.2,449l5.22-62h17a19.74,19.74,0,1,0,0-39.48H85.54a46.12,46.12,0,0,1-46.06-46.06V85.54A46.12,46.12,0,0,1,85.54,39.48H350a46.11,46.11,0,0,1,46.06,46.06V301.48Z"/><path class="cls-1" d="M287.92,176.41,167.35,106.8a19.75,19.75,0,0,0-29.61,17.09V263.12a19.76,19.76,0,0,0,29.61,17.1L287.92,210.6A19.75,19.75,0,0,0,287.92,176.41Zm-110.7,52.52V158.08l61.35,35.43Z"/></g></g></svg>