<svg xmlns="http://www.w3.org/2000/svg" viewBox="0 0 512 435.2"><defs><style>.cls-1{fill:#fff;}</style></defs><g id="圖層_2" data-name="圖層 2"><g id="Layer_1" data-name="Layer 1"><path class="cls-1" d="M486.4,0H25.6A25.6,25.6,0,0,0,0,25.6v384a25.6,25.6,0,0,0,25.6,25.6H486.4A25.6,25.6,0,0,0,512,409.6V25.6A25.6,25.6,0,0,0,486.4,0Zm0,409.6H25.6V128H486.4Zm0-307.2H25.6V25.6H486.4Z"/><circle class="cls-1" cx="448" cy="64" r="12.8"/><circle class="cls-1" cx="396.8" cy="64" r="12.8"/><circle class="cls-1" cx="345.6" cy="64" r="12.8"/><path class="cls-1" d="M278.3,179.58a12.7,12.7,0,0,0-15.52,9.31l-38.4,153.6A12.82,12.82,0,0,0,233.7,358a13.34,13.34,0,0,0,3.1.38,12.8,12.8,0,0,0,12.43-9.7l38.4-153.6A12.82,12.82,0,0,0,278.3,179.58Z"/><path class="cls-1" d="M197.73,308.55,118.22,268.8l79.5-39.75a12.8,12.8,0,0,0-11.45-22.9l-102.4,51.2a12.81,12.81,0,0,0,0,22.9l102.4,51.2a12.8,12.8,0,0,0,11.46-22.9Z"/><path class="cls-1" d="M428.13,257.35l-102.4-51.2A13,13,0,0,0,320,204.8a12.8,12.8,0,0,0-5.73,24.25l79.51,39.75-79.5,39.75a12.8,12.8,0,1,0,11.45,22.9l102.4-51.2a12.81,12.81,0,0,0,0-22.9Z"/></g></g></svg>